<?xml version="1.0" standalone="no"?>
<!DOCTYPE svg PUBLIC "-//W3C//DTD SVG 20010904//EN"
 "http://www.w3.org/TR/2001/REC-SVG-20010904/DTD/svg10.dtd">
<svg version="1.0" xmlns="http://www.w3.org/2000/svg"
 width="1213.000000pt" height="1093.000000pt" viewBox="0 0 1213.000000 1093.000000"
 preserveAspectRatio="xMidYMid meet">

<g transform="translate(0.000000,1093.000000) scale(0.100000,-0.100000)"
fill="#000000" stroke="none">
<path d="M5784 10450 c-369 -19 -737 -80 -1104 -186 -108 -31 -285 -91 -330
-112 -19 -9 -38 -15 -42 -14 -4 1 -29 -8 -55 -20 -26 -11 -54 -22 -61 -24 -36
-7 -275 -113 -321 -143 -13 -8 -30 -16 -38 -17 -8 -1 -25 -10 -38 -18 -14 -9
-27 -16 -30 -16 -16 1 -278 -149 -283 -162 -2 -4 -8 -8 -14 -8 -26 0 -383
-242 -428 -290 -3 -3 -41 -35 -85 -70 -278 -225 -628 -581 -805 -820 -14 -18
-43 -56 -66 -84 -63 -79 -199 -290 -264 -409 -11 -20 -40 -67 -64 -105 -46
-72 -152 -279 -206 -402 -18 -41 -41 -94 -51 -117 -132 -294 -258 -790 -298
-1178 -17 -154 -33 -475 -27 -525 3 -25 8 -106 11 -180 3 -74 8 -146 10 -160
9 -52 14 -88 25 -170 16 -133 78 -440 100 -493 5 -12 21 -67 36 -122 26 -94
120 -359 179 -505 93 -228 294 -601 419 -775 68 -96 158 -217 173 -233 7 -7
13 -16 13 -20 0 -4 22 -30 48 -58 26 -28 69 -78 96 -110 63 -75 438 -450 530
-529 221 -192 492 -388 711 -513 125 -72 323 -180 395 -215 172 -84 541 -230
610 -242 8 -1 24 -6 35 -10 57 -20 83 -27 235 -64 379 -91 680 -129 1110 -138
337 -7 609 9 895 52 11 1 47 6 80 9 79 9 118 17 130 25 6 4 32 8 58 9 27 0 54
5 61 11 7 6 15 8 19 5 7 -8 381 87 385 98 2 4 7 6 11 3 8 -4 220 59 301 90
333 126 632 264 822 379 47 29 92 56 100 60 13 6 51 32 187 129 64 45 133 98
271 205 173 135 482 432 621 597 200 239 380 508 534 800 26 50 76 142 111
206 65 118 194 383 194 398 0 4 18 52 40 106 107 263 190 580 236 905 25 177
30 644 10 840 -42 402 -139 799 -281 1155 -60 151 -135 310 -145 307 -6 -1 -9
2 -5 8 3 5 -24 69 -61 142 -242 482 -527 887 -863 1232 -451 461 -913 793
-1462 1051 -281 132 -715 267 -1089 339 -74 15 -157 31 -185 36 -288 55 -715
78 -1101 60z m801 -284 c686 -83 1208 -250 1815 -581 237 -129 559 -350 730
-501 91 -81 321 -298 381 -361 87 -89 327 -371 405 -475 274 -363 343 -463
330 -475 -2 -3 -10 6 -17 19 -14 27 -195 254 -209 263 -5 3 -56 59 -112 123
-564 644 -963 992 -1483 1292 -130 75 -429 221 -570 278 -360 145 -879 267
-1340 314 -161 16 -677 16 -835 0 -622 -65 -1079 -181 -1520 -387 -418 -195
-713 -379 -1050 -654 -99 -81 -355 -329 -430 -416 -19 -22 -60 -69 -91 -105
-322 -374 -614 -884 -774 -1352 -151 -440 -217 -808 -241 -1336 l-6 -153 -32
7 c-17 3 -33 8 -35 10 -8 8 -1 421 9 529 62 657 282 1290 652 1879 239 380
647 818 1058 1137 345 268 915 574 1334 716 281 95 749 199 1022 227 82 9 165
18 184 20 94 11 693 -3 825 -18z m-315 -346 c475 -26 872 -97 1300 -235 413
-133 882 -389 1258 -688 252 -200 792 -734 792 -783 0 -7 -40 -13 -117 -17
-279 -13 -499 -100 -803 -318 -52 -37 -121 -93 -153 -123 -33 -31 -62 -54 -67
-51 -4 2 -10 24 -13 47 -10 72 -75 287 -124 408 -95 235 -277 523 -448 710
-301 328 -703 582 -1085 684 -243 65 -413 70 -600 17 -336 -95 -434 -157 -795
-504 -145 -139 -263 -255 -264 -258 -1 -3 60 -9 135 -13 328 -16 739 -118
1104 -273 404 -172 847 -468 1140 -762 122 -123 240 -283 240 -326 0 -12 -29
-3 -61 19 -142 96 -594 335 -784 414 -190 78 -366 132 -525 161 -287 51 -790
26 -1105 -56 -109 -29 -205 -67 -205 -83 0 -6 45 -10 118 -10 688 -1 1194
-119 1902 -442 242 -111 496 -243 490 -254 -6 -11 -30 -11 -158 4 -233 27
-664 11 -872 -33 -157 -33 -480 -117 -601 -157 l-126 -41 -114 31 c-191 53
-322 70 -499 66 -85 -1 -177 -7 -205 -13 -442 -87 -758 -319 -1137 -831 -104
-140 -237 -343 -250 -381 -5 -15 -15 -30 -22 -32 -11 -5 -1472 -11 -1723 -8
l-73 1 0 133 c0 371 78 798 225 1227 114 331 307 722 484 980 35 52 75 111 88
130 58 85 209 257 353 401 138 138 374 343 455 395 17 10 32 21 35 24 3 3 25
18 50 34 25 16 58 38 75 49 278 191 816 446 1215 575 274 89 572 146 905 172
278 21 339 22 565 10z m239 -615 c20 -1 43 -5 51 -8 8 -3 53 -13 99 -22 186
-37 407 -126 581 -235 255 -159 491 -414 667 -720 104 -182 169 -342 212 -520
22 -91 55 -332 49 -352 -2 -6 -44 45 -93 113 -156 220 -309 390 -533 595 -410
376 -783 595 -1307 766 -105 34 -331 94 -392 103 -24 4 -43 10 -43 14 0 14
210 133 313 178 185 82 257 103 316 96 25 -3 61 -7 80 -8z m-909 -161 c6 -14
10 -41 10 -59 0 -44 -24 -38 -40 11 -19 58 9 103 30 48z m4303 -1253 c166 -44
265 -123 358 -286 135 -238 271 -496 265 -502 -3 -3 -38 19 -78 50 -114 86
-314 178 -533 245 -207 64 -365 90 -585 99 -216 8 -388 -16 -648 -88 -62 -18
-115 -30 -118 -27 -12 13 23 47 128 123 298 217 549 340 806 396 114 25 293
21 405 -10z m-532 -691 c329 -33 689 -137 929 -270 160 -88 302 -220 338 -313
22 -59 66 -354 60 -405 -3 -26 -5 -27 -53 -24 -82 6 -179 29 -232 55 -27 14
-107 67 -177 117 -210 151 -329 227 -469 300 -409 214 -956 402 -1222 419
-112 8 -112 7 40 49 267 74 524 98 786 72z m-1490 -320 c57 -38 130 -88 161
-111 l57 -42 56 44 c90 70 175 129 187 129 17 0 3 -214 -27 -395 -58 -357
-144 -643 -289 -959 -29 -62 -40 -77 -53 -73 -10 3 -90 36 -178 72 -154 65
-280 111 -412 151 -35 10 -63 23 -63 27 0 12 197 560 288 805 44 117 95 260
114 317 18 58 37 105 43 105 6 0 58 -31 116 -70z m-461 43 c0 -5 -8 -21 -18
-38 -32 -53 -132 -314 -207 -540 -39 -117 -102 -344 -126 -452 -12 -57 -26
-103 -29 -103 -4 0 -18 27 -30 60 -12 32 -42 94 -66 136 -24 43 -44 79 -44 81
0 7 -123 189 -169 248 -118 154 -363 376 -478 433 -57 28 -67 42 -29 42 13 0
117 16 232 35 249 41 555 83 691 94 132 11 273 13 273 4z m1261 -163 c210 -40
483 -139 782 -283 183 -89 301 -156 554 -318 168 -109 281 -169 362 -193 60
-18 192 -21 221 -6 10 5 26 32 36 60 10 28 26 58 36 67 17 15 18 14 18 -16 0
-17 -7 -47 -15 -66 -14 -34 -13 -35 8 -30 60 14 123 23 131 18 15 -9 -16 -21
-110 -42 -134 -29 -269 -75 -461 -157 -290 -124 -344 -154 -563 -319 -241
-182 -342 -240 -509 -295 -210 -68 -465 -66 -637 6 -40 17 -41 20 -12 51 30
32 18 37 -17 7 -25 -21 -37 -25 -68 -20 -45 7 -187 76 -187 91 0 5 10 26 22
45 125 203 224 496 299 883 15 77 28 117 36 117 45 0 408 -232 549 -351 171
-144 238 -235 265 -359 l11 -53 117 7 c64 3 130 10 146 14 l30 8 3 100 c2 54
-2 116 -8 136 -15 52 -130 187 -237 279 -188 163 -471 348 -722 474 -205 102
-231 119 -224 145 7 25 17 25 144 0z m-3192 -29 c442 -86 854 -360 1111 -739
23 -35 39 -66 36 -70 -4 -3 -42 6 -84 21 -290 100 -744 175 -1127 186 -459 12
-780 -38 -1225 -189 -69 -23 -198 -79 -272 -116 -45 -23 -32 -8 30 37 70 50
128 111 240 254 155 198 231 283 320 358 103 87 126 103 215 150 211 113 509
156 756 108z m16 -941 c99 -5 234 -16 300 -25 161 -21 556 -93 625 -113 l55
-16 -85 -8 c-47 -4 -137 -13 -200 -19 -192 -18 -553 -119 -855 -239 -100 -40
-306 -132 -590 -265 -291 -135 -488 -218 -605 -253 -116 -35 -204 -60 -234
-67 -36 -8 -289 46 -407 87 -47 16 -126 54 -175 83 -49 30 -110 67 -136 82
-46 27 -63 53 -34 53 15 0 249 118 336 170 72 43 374 194 475 237 370 160 797
268 1160 293 159 10 172 10 370 0z m5200 -36 c-11 -9 -150 -80 -310 -159 -274
-135 -369 -185 -597 -318 -102 -60 -140 -75 -73 -30 113 76 407 238 610 336
72 34 186 90 255 124 134 66 146 71 115 47z m-3645 -171 c0 -21 -3 -22 -20
-13 -19 10 -27 40 -13 53 11 12 33 -14 33 -40z m-5005 -93 c57 -6 325 -9 620
-7 473 2 579 -2 560 -21 -4 -4 -70 -14 -148 -23 -78 -9 -207 -25 -287 -34
-184 -23 -515 -26 -615 -6 -38 7 -86 22 -106 32 -32 16 -94 33 -191 54 -49 10
-33 28 20 21 26 -3 92 -10 147 -16z m8625 -24 c0 -20 -84 -90 -150 -125 -81
-43 -192 -77 -397 -122 -178 -38 -243 -47 -243 -31 0 12 57 38 147 66 45 15
124 46 175 70 108 50 194 82 333 124 114 35 135 38 135 18z m-3905 -85 c-6 -6
-60 -35 -122 -65 -273 -135 -624 -403 -1215 -929 -494 -439 -726 -615 -1044
-791 -113 -62 -343 -171 -424 -201 -348 -127 -464 -149 -770 -149 -266 -1
-436 30 -702 124 -61 22 -113 38 -115 36 -11 -10 135 -139 233 -205 81 -56
254 -146 346 -181 71 -27 252 -75 363 -96 119 -23 397 -23 555 0 203 29 403
83 570 154 263 111 451 224 675 402 105 84 281 234 305 260 3 3 34 32 70 65
75 69 478 455 690 660 231 224 336 321 467 426 409 329 625 403 903 312 196
-64 378 -152 567 -274 402 -259 615 -361 868 -414 218 -46 535 -22 735 57 70
27 86 39 68 49 -7 4 -137 48 -288 99 -151 50 -283 97 -294 105 -56 42 53 44
454 10 259 -22 542 -17 652 13 95 26 157 57 243 122 36 29 69 49 72 46 14 -14
-76 -176 -153 -276 -144 -187 -385 -346 -674 -445 -209 -72 -400 -99 -695 -99
-296 0 -410 20 -925 159 -308 84 -373 95 -539 95 -355 0 -603 -74 -838 -248
-110 -83 -179 -145 -423 -386 -419 -414 -578 -545 -885 -731 -364 -221 -716
-354 -1115 -422 -164 -28 -589 -25 -762 5 -441 78 -827 226 -1038 396 -179
145 -371 395 -487 636 -41 85 -88 177 -105 203 -17 26 -28 50 -26 53 3 2 29
-12 59 -32 30 -20 104 -60 164 -90 240 -116 420 -154 725 -155 250 0 347 13
550 75 172 52 268 91 445 180 176 89 331 188 704 450 253 177 305 212 498 334
516 326 974 522 1462 626 90 20 166 38 169 41 3 3 12 5 21 5 9 0 11 -3 6 -9z
m-5215 -60 c0 -29 145 -147 254 -207 177 -97 502 -164 796 -164 121 0 120 1
225 -100 251 -240 458 -359 739 -424 181 -42 235 -49 335 -43 l96 5 -35 -18
c-46 -23 -357 -116 -451 -135 -422 -82 -926 -6 -1344 202 -208 104 -400 257
-490 393 -86 129 -146 286 -117 304 6 4 4 21 -5 48 -20 59 -29 148 -14 148 6
0 11 -4 11 -9z m8695 -1298 c-10 -16 -26 -37 -35 -48 -36 -41 -230 -336 -230
-350 0 -47 -137 -265 -314 -500 -176 -235 -464 -496 -776 -704 -360 -240 -544
-287 -879 -226 -239 44 -390 57 -716 62 -487 8 -752 -21 -1255 -138 -47 -11
-134 -31 -195 -44 -60 -14 -150 -34 -200 -45 -222 -51 -550 -95 -765 -103
-130 -6 -400 9 -516 28 -218 35 -504 161 -776 341 -86 57 -159 108 -163 114
-14 22 20 7 152 -69 172 -98 179 -101 354 -145 333 -83 570 -93 847 -36 365
76 610 192 956 453 138 104 182 124 373 172 512 126 1098 114 1798 -37 441
-95 663 -116 875 -83 179 28 266 65 450 192 63 44 243 223 327 326 61 75 174
229 170 234 -2 1 -21 -4 -42 -12 -137 -47 -457 -70 -624 -46 -181 27 -414 99
-639 197 -459 202 -633 255 -904 276 -198 15 -421 1 -495 -32 -130 -57 -346
-208 -465 -324 -38 -37 -122 -131 -188 -211 -67 -80 -123 -145 -126 -145 -3 0
9 17 26 38 16 20 60 75 95 122 163 211 445 444 655 540 30 14 57 27 60 30 22
23 136 91 180 108 134 52 216 66 385 66 160 0 161 0 340 -48 565 -152 654
-169 950 -187 366 -22 704 17 1020 117 100 32 215 85 258 118 42 33 54 33 32
-1z m-1892 -743 c15 -5 55 -12 90 -16 34 -4 68 -10 76 -14 13 -7 -28 -11 -249
-24 -41 -2 -156 -11 -256 -20 -100 -9 -271 -20 -380 -26 -193 -9 -320 -25
-434 -55 -30 -8 -56 -12 -58 -10 -7 6 118 42 243 69 66 14 136 30 155 36 83
23 364 52 520 55 91 1 176 7 190 13 25 10 50 8 103 -8z m-1349 -24 c-50 -22
-82 -27 -39 -7 22 11 47 20 55 20 8 0 1 -6 -16 -13z m-85 -30 c-2 -3 -61 -30
-131 -60 -70 -31 -160 -72 -200 -92 -40 -20 -68 -31 -63 -26 15 16 187 101
290 144 83 34 115 45 104 34z m-698 -144 c-5 -10 -18 -25 -27 -33 -11 -9 -9
-2 6 19 26 35 36 42 21 14z m2727 -694 c-21 -20 -167 -118 -175 -118 -3 0 -49
-29 -102 -64 -180 -121 -261 -155 -261 -111 0 20 32 42 85 59 110 37 307 140
404 213 42 32 77 46 49 21z m-1418 -527 c0 -5 -10 -11 -22 -15 -103 -29 -316
-79 -423 -100 -374 -73 -684 -105 -1161 -122 -238 -8 -285 -2 -332 41 -21 18
-32 37 -28 43 5 8 54 12 158 12 255 0 560 26 1143 99 39 5 149 14 245 21 96 7
204 16 240 20 93 11 180 11 180 1z m-2641 -126 c2 -3 0 -9 -5 -14 -14 -14
-116 1 -122 18 -4 12 7 13 58 8 35 -4 66 -9 69 -12z m128 3 c18 1 34 -2 37 -7
3 -5 26 -6 52 -3 l45 5 -3 -34 c-3 -31 -6 -34 -33 -32 -16 1 -36 12 -45 23
-11 15 -19 17 -26 10 -15 -15 -111 -1 -131 18 -14 14 -14 17 3 23 11 5 30 5
44 2 14 -4 39 -6 57 -5z m283 -31 c0 -8 3 -7 9 1 5 8 21 12 37 10 25 -3 29 -8
32 -36 l3 -34 -88 7 c-48 4 -96 9 -105 11 -19 6 -24 34 -9 50 14 13 121 5 121
-9z m227 -27 c6 -19 8 -39 3 -43 -4 -5 -33 -6 -65 -2 -46 6 -59 12 -67 31 -20
42 -5 55 59 52 56 -3 58 -4 70 -38z"/>
<path d="M4307 9234 c-17 -25 -63 -105 -101 -177 -37 -73 -72 -137 -77 -143
-11 -14 -99 -279 -99 -299 0 -13 24 -15 173 -15 96 0 176 2 178 4 10 10 -12
426 -26 494 -17 84 -20 171 -6 157 16 -16 41 -248 49 -455 l7 -195 113 -3
c146 -4 149 -22 3 -22 l-109 0 -6 -26 c-4 -14 -6 -88 -6 -163 1 -193 -3 -186
-10 14 l-5 170 -170 6 c-93 3 -196 11 -228 18 -55 11 -92 7 -69 -8 20 -13 -49
-127 -148 -241 -54 -63 -133 -160 -143 -177 -8 -13 242 -16 376 -5 l78 7 33
73 c18 40 35 75 38 77 3 3 0 -23 -6 -57 -15 -81 -11 -106 17 -110 19 -3 23
-11 27 -68 6 -69 27 -123 65 -164 27 -29 107 -45 129 -27 12 10 50 84 99 191
7 14 21 40 32 57 18 29 25 33 67 33 l47 0 9 43 10 42 1 -42 1 -43 158 1 c86 0
177 4 201 7 l44 7 -78 105 c-43 58 -106 140 -141 182 l-62 77 134 135 133 135
-57 47 c-63 52 -115 78 -140 70 -36 -11 -257 -27 -293 -21 -36 6 -38 9 -48 56
-6 27 -27 81 -46 119 -37 74 -102 180 -111 180 -2 0 -19 -21 -37 -46z m-288
-660 c2 -2 -12 -4 -32 -4 -20 0 -37 4 -37 10 0 8 58 3 69 -6z m122 -127 c11
-21 28 -46 37 -55 27 -28 102 -130 109 -149 4 -10 -21 15 -55 55 -55 66 -132
188 -132 209 0 10 15 -12 41 -60z m410 -162 l-7 -60 -6 46 c-8 49 0 96 12 82
5 -4 5 -35 1 -68z"/>
<path d="M3863 8890 c-61 -15 -128 -33 -148 -40 l-36 -12 23 -19 c44 -37 99
-94 136 -141 36 -48 36 -48 97 -48 56 0 62 2 77 28 33 56 78 184 78 222 l0 40
-57 -1 c-32 0 -108 -13 -170 -29z"/>
<path d="M8043 973 l-33 -4 0 -315 0 -314 65 0 65 0 0 73 c0 62 3 77 21 93 13
12 23 15 27 7 4 -6 32 -47 62 -91 l55 -81 74 -1 c57 0 71 3 64 12 -6 7 -49 62
-97 122 l-87 110 93 93 93 93 -69 0 -70 0 -80 -77 -81 -78 -3 183 -2 182 -33
-2 c-17 0 -47 -3 -64 -5z"/>
<path d="M6013 947 l-42 -10 -3 -81 -3 -81 -45 -3 c-79 -4 -109 -12 -138 -37
l-30 -25 -6 30 c-5 29 -7 30 -61 30 l-55 0 0 -215 0 -215 65 0 65 0 0 150 c0
143 1 150 22 161 12 6 39 12 60 13 35 1 38 3 38 28 0 26 3 28 39 28 l39 0 3
-142 c5 -165 17 -200 83 -232 34 -17 46 -18 99 -8 75 14 82 21 68 65 -11 34
-13 35 -42 24 -36 -14 -60 -2 -70 34 -4 13 -7 77 -8 142 l-1 117 65 0 c63 0
65 1 65 25 0 24 -2 25 -65 25 l-65 0 0 95 c0 106 4 102 -77 82z"/>
<path d="M3730 637 l0 -297 70 0 70 0 0 125 0 125 59 0 c49 0 65 -4 90 -26 31
-26 31 -26 31 -125 l0 -99 70 0 70 0 0 86 c0 132 -30 173 -145 200 -28 6 -27
7 25 19 77 19 110 57 110 129 0 111 -63 143 -302 153 l-148 6 0 -296z m279
188 c50 -26 48 -109 -4 -133 -12 -6 -47 -13 -78 -17 l-57 -7 0 86 0 86 55 0
c31 0 69 -7 84 -15z"/>
<path d="M6432 918 c3 -7 31 -140 64 -295 l59 -283 76 0 75 0 39 208 c21 114
41 213 45 221 4 7 27 -86 50 -208 l43 -221 73 0 c60 0 74 3 78 18 3 9 30 134
61 277 30 143 57 268 59 278 4 15 -4 17 -64 17 l-67 0 -7 -42 c-4 -24 -21
-117 -38 -208 -23 -121 -34 -158 -39 -140 -4 14 -22 107 -40 208 l-33 182 -73
0 c-40 0 -73 -3 -73 -7 -1 -43 -78 -420 -80 -392 -1 2 -17 92 -38 199 l-37
195 -69 3 c-53 2 -67 0 -64 -10z"/>
<path d="M4359 757 c-65 -34 -99 -105 -99 -206 0 -60 5 -84 23 -116 52 -91
171 -124 305 -83 32 10 34 12 27 47 -10 50 -11 52 -50 35 -68 -28 -140 -10
-163 41 -25 54 -23 55 119 55 l132 0 -6 66 c-8 80 -39 140 -87 166 -51 27
-144 24 -201 -5z m156 -82 c16 -15 25 -36 25 -55 l0 -30 -75 0 c-74 0 -75 0
-75 26 0 31 50 84 80 84 11 0 32 -11 45 -25z"/>
<path d="M4785 766 c-43 -19 -66 -49 -72 -94 -9 -69 15 -98 123 -148 69 -32
94 -48 94 -62 0 -44 -48 -53 -139 -26 -29 8 -54 14 -55 12 -1 -2 -7 -20 -13
-41 -13 -44 -11 -46 90 -67 133 -27 237 28 237 126 0 61 -35 96 -135 138 -81
34 -99 53 -75 81 16 19 64 19 126 0 27 -8 50 -15 51 -15 6 0 23 71 19 79 -18
29 -197 41 -251 17z"/>
<path d="M5225 766 c-105 -46 -145 -209 -83 -335 38 -77 133 -113 239 -90 97
21 148 94 149 210 0 155 -67 229 -210 228 -36 0 -79 -6 -95 -13z m130 -72 c29
-11 45 -60 45 -134 0 -74 -16 -123 -45 -134 -56 -21 -99 14 -111 90 -18 121
35 207 111 178z"/>
<path d="M7285 763 c-78 -41 -108 -97 -109 -203 -1 -103 29 -163 98 -199 98
-50 232 -24 286 56 20 30 26 51 29 116 5 127 -24 192 -103 228 -52 24 -159 25
-201 2z m144 -80 c29 -24 43 -107 31 -175 -23 -120 -132 -119 -151 1 -16 105
18 191 76 191 13 0 32 -8 44 -17z"/>
<path d="M7690 555 l0 -215 65 0 65 0 0 150 c0 143 1 150 22 161 12 6 39 12
60 13 l38 1 0 52 c0 41 -3 53 -15 53 -27 0 -85 -28 -91 -45 -10 -24 -21 -18
-27 15 -6 29 -8 30 -62 30 l-55 0 0 -215z"/>
</g>
</svg>
